<svg width="24" height="24" viewBox="0 0 24 24" fill="none" xmlns="http://www.w3.org/2000/svg">
<mask id="mask0_1_127" style="mask-type:luminance" maskUnits="userSpaceOnUse" x="0" y="0" width="24" height="24">
<path d="M23.0916 0H0.541626V24H23.0916V0Z" fill="white"/>
</mask>
<g mask="url(#mask0_1_127)">
<path d="M11.8167 15C12.1173 15 12.3992 15.127 12.6153 15.352C12.822 15.577 12.9441 15.882 12.9441 16.2C12.9441 16.518 12.822 16.824 12.6153 17.049C12.3992 17.274 12.1173 17.4 11.8167 17.4C11.516 17.4 11.2341 17.274 11.018 17.049C10.8113 16.824 10.6892 16.518 10.6892 16.2C10.6892 15.882 10.8113 15.577 11.018 15.352C11.2341 15.127 11.516 15 11.8167 15ZM11.8167 10.8C12.1173 10.8 12.3992 10.927 12.6153 11.152C12.822 11.377 12.9441 11.682 12.9441 12C12.9441 12.318 12.822 12.624 12.6153 12.849C12.3992 13.074 12.1173 13.2 11.8167 13.2C11.516 13.2 11.2341 13.074 11.018 12.849C10.8113 12.624 10.6892 12.318 10.6892 12C10.6892 11.682 10.8113 11.377 11.018 11.152C11.2341 10.927 11.516 10.8 11.8167 10.8ZM11.8167 6.59998C12.1173 6.59998 12.3992 6.72697 12.6153 6.95197C12.822 7.17697 12.9441 7.48196 12.9441 7.79996C12.9441 8.11796 12.822 8.42396 12.6153 8.64896C12.3992 8.87396 12.1173 8.99997 11.8167 8.99997C11.516 8.99997 11.2341 8.87396 11.018 8.64896C10.8113 8.42396 10.6892 8.11796 10.6892 7.79996C10.6892 7.48196 10.8113 7.17697 11.018 6.95197C11.2341 6.72697 11.516 6.59998 11.8167 6.59998Z" fill="#E5E7EB"/>
<path d="M11.8167 23.25C17.6545 23.25 22.387 18.2132 22.387 12C22.387 5.7868 17.6545 0.75 11.8167 0.75C5.97884 0.75 1.24635 5.7868 1.24635 12C1.24635 18.2132 5.97884 23.25 11.8167 23.25Z" stroke="#E5E7EB" stroke-width="1.5"/>
</g>
</svg>
