<svg width="123" height="13" viewBox="0 0 123 13" fill="none" xmlns="http://www.w3.org/2000/svg">
<path d="M5.20799 12.24C4.39199 12.24 3.656 12.101 3 11.824C2.349 11.547 1.811 11.152 1.384 10.64C0.963003 10.123 0.687998 9.51198 0.559998 8.80798L2.032 8.57599C2.219 9.30099 2.605 9.86903 3.192 10.28C3.784 10.685 4.48 10.888 5.28 10.888C5.797 10.888 6.26399 10.808 6.67999 10.648C7.10099 10.483 7.43499 10.248 7.67999 9.94397C7.92499 9.63997 8.048 9.28001 8.048 8.86401C8.048 8.60801 8.003 8.38901 7.912 8.20801C7.827 8.02101 7.707 7.86402 7.552 7.73602C7.403 7.60302 7.23199 7.49102 7.03999 7.40002C6.84799 7.30902 6.648 7.23503 6.44 7.17603L3.504 6.30402C3.184 6.20802 2.875 6.08797 2.576 5.94397C2.277 5.79497 2.011 5.61103 1.776 5.39203C1.541 5.16803 1.355 4.90098 1.216 4.59198C1.077 4.27698 1.008 3.90698 1.008 3.47998C1.008 2.79698 1.184 2.21602 1.536 1.73602C1.893 1.25102 2.37599 0.880023 2.98399 0.624023C3.59199 0.368023 4.27699 0.242986 5.03999 0.247986C5.81299 0.252986 6.504 0.392001 7.112 0.664001C7.725 0.931001 8.232 1.31498 8.632 1.81598C9.037 2.31698 9.309 2.91703 9.448 3.61603L7.936 3.88C7.856 3.411 7.67699 3.008 7.39999 2.672C7.12799 2.331 6.78701 2.069 6.37601 1.888C5.96501 1.701 5.515 1.60498 5.024 1.59998C4.555 1.59498 4.131 1.66897 3.752 1.82397C3.373 1.97897 3.07201 2.19498 2.84801 2.47198C2.62401 2.74398 2.51199 3.05902 2.51199 3.41602C2.51199 3.76802 2.61299 4.05297 2.81599 4.27197C3.01899 4.48497 3.267 4.656 3.56 4.784C3.859 4.907 4.14901 5.00801 4.43201 5.08801L6.62399 5.71997C6.87499 5.78897 7.16301 5.885 7.48801 6.008C7.81901 6.131 8.139 6.30402 8.448 6.52802C8.757 6.74701 9.013 7.04002 9.216 7.40802C9.419 7.77102 9.52 8.229 9.52 8.784C9.52 9.339 9.40801 9.83198 9.18401 10.264C8.96501 10.696 8.65901 11.059 8.26401 11.352C7.86901 11.64 7.411 11.859 6.888 12.008C6.365 12.163 5.80499 12.24 5.20799 12.24ZM14.942 12.24C14.094 12.24 13.353 12.053 12.718 11.68C12.089 11.301 11.598 10.776 11.246 10.104C10.894 9.427 10.718 8.63702 10.718 7.73602C10.718 6.79202 10.891 5.97603 11.238 5.28802C11.585 4.59503 12.067 4.06099 12.686 3.68799C13.31 3.30899 14.041 3.12 14.878 3.12C15.747 3.12 16.486 3.31997 17.094 3.71997C17.707 4.11997 18.166 4.69101 18.47 5.43201C18.779 6.17301 18.913 7.05602 18.87 8.08002H17.43V7.56799C17.414 6.50699 17.198 5.71502 16.782 5.19202C16.366 4.66402 15.747 4.40002 14.926 4.40002C14.046 4.40002 13.377 4.68299 12.918 5.24799C12.459 5.81299 12.23 6.62399 12.23 7.67999C12.23 8.69899 12.459 9.48797 12.918 10.048C13.377 10.608 14.03 10.888 14.878 10.888C15.449 10.888 15.945 10.757 16.366 10.496C16.787 10.235 17.118 9.85898 17.358 9.36798L18.726 9.84003C18.39 10.603 17.883 11.195 17.206 11.616C16.534 12.032 15.779 12.24 14.942 12.24ZM11.75 8.08002V6.93597H18.134V8.08002H11.75ZM24.395 12.24C23.547 12.24 22.806 12.053 22.171 11.68C21.542 11.301 21.051 10.776 20.699 10.104C20.347 9.427 20.171 8.63702 20.171 7.73602C20.171 6.79202 20.345 5.97603 20.691 5.28802C21.038 4.59503 21.521 4.06099 22.139 3.68799C22.763 3.30899 23.494 3.12 24.331 3.12C25.201 3.12 25.939 3.31997 26.547 3.71997C27.161 4.11997 27.619 4.69101 27.923 5.43201C28.233 6.17301 28.366 7.05602 28.323 8.08002H26.883V7.56799C26.867 6.50699 26.651 5.71502 26.235 5.19202C25.819 4.66402 25.201 4.40002 24.379 4.40002C23.499 4.40002 22.83 4.68299 22.371 5.24799C21.913 5.81299 21.683 6.62399 21.683 7.67999C21.683 8.69899 21.913 9.48797 22.371 10.048C22.83 10.608 23.483 10.888 24.331 10.888C24.902 10.888 25.398 10.757 25.819 10.496C26.241 10.235 26.571 9.85898 26.811 9.36798L28.179 9.84003C27.843 10.603 27.337 11.195 26.659 11.616C25.987 12.032 25.233 12.24 24.395 12.24ZM21.203 8.08002V6.93597H27.587V8.08002H21.203ZM35.764 12.24C35.118 12.24 34.577 12.123 34.14 11.888C33.708 11.648 33.38 11.333 33.156 10.944C32.937 10.555 32.828 10.128 32.828 9.664C32.828 9.211 32.913 8.81898 33.084 8.48798C33.26 8.15198 33.505 7.87501 33.82 7.65601C34.134 7.43201 34.51 7.25599 34.948 7.12799C35.358 7.01599 35.817 6.92003 36.324 6.84003C36.836 6.75503 37.353 6.67697 37.876 6.60797C38.398 6.53897 38.886 6.47202 39.34 6.40802L38.828 6.70398C38.844 5.93598 38.689 5.368 38.364 5C38.044 4.632 37.489 4.448 36.7 4.448C36.177 4.448 35.718 4.56798 35.324 4.80798C34.934 5.04298 34.66 5.42702 34.5 5.96002L33.148 5.552C33.356 4.795 33.758 4.20001 34.356 3.76801C34.953 3.33601 35.74 3.12 36.716 3.12C37.5 3.12 38.172 3.26101 38.732 3.54401C39.297 3.82101 39.702 4.24298 39.948 4.80798C40.07 5.07498 40.148 5.36499 40.18 5.67999C40.212 5.98899 40.227 6.31501 40.227 6.65601V12H38.964V9.92798L39.26 10.12C38.934 10.819 38.478 11.347 37.892 11.704C37.31 12.061 36.601 12.24 35.764 12.24ZM35.98 11.048C36.492 11.048 36.934 10.957 37.308 10.776C37.686 10.589 37.99 10.347 38.22 10.048C38.449 9.74397 38.598 9.41303 38.668 9.05603C38.748 8.78903 38.79 8.49303 38.796 8.16803C38.806 7.83703 38.812 7.58402 38.812 7.40802L39.308 7.62402C38.844 7.68802 38.388 7.74898 37.94 7.80798C37.492 7.86698 37.068 7.931 36.668 8C36.268 8.064 35.908 8.14099 35.588 8.23199C35.353 8.30699 35.132 8.40302 34.924 8.52002C34.721 8.63702 34.556 8.78901 34.428 8.97601C34.305 9.15701 34.243 9.38401 34.243 9.65601C34.243 9.89101 34.302 10.115 34.42 10.328C34.542 10.541 34.729 10.715 34.98 10.848C35.236 10.981 35.569 11.048 35.98 11.048ZM42.468 12V0.23999H43.892V12H42.468ZM46.452 12V0.23999H47.876V12H46.452ZM54.303 12V2.888C54.303 2.664 54.314 2.43701 54.335 2.20801C54.357 1.97301 54.405 1.74702 54.479 1.52802C54.554 1.30402 54.677 1.09899 54.847 0.911987C55.045 0.692987 55.261 0.538998 55.495 0.447998C55.73 0.351998 55.967 0.292973 56.207 0.271973C56.453 0.250973 56.685 0.23999 56.903 0.23999H57.999V1.42401H56.983C56.562 1.42401 56.247 1.52802 56.039 1.73602C55.831 1.93902 55.727 2.248 55.727 2.664V12H54.303ZM52.839 4.53601V3.35999H57.999V4.53601H52.839ZM61.498 12.24C60.853 12.24 60.311 12.123 59.874 11.888C59.442 11.648 59.114 11.333 58.89 10.944C58.671 10.555 58.562 10.128 58.562 9.664C58.562 9.211 58.647 8.81898 58.818 8.48798C58.994 8.15198 59.239 7.87501 59.554 7.65601C59.869 7.43201 60.245 7.25599 60.682 7.12799C61.093 7.01599 61.551 6.92003 62.058 6.84003C62.57 6.75503 63.087 6.67697 63.61 6.60797C64.133 6.53897 64.621 6.47202 65.074 6.40802L64.562 6.70398C64.578 5.93598 64.423 5.368 64.098 5C63.778 4.632 63.223 4.448 62.434 4.448C61.911 4.448 61.453 4.56798 61.058 4.80798C60.669 5.04298 60.394 5.42702 60.234 5.96002L58.882 5.552C59.09 4.795 59.493 4.20001 60.09 3.76801C60.687 3.33601 61.474 3.12 62.45 3.12C63.234 3.12 63.906 3.26101 64.466 3.54401C65.031 3.82101 65.437 4.24298 65.682 4.80798C65.805 5.07498 65.882 5.36499 65.914 5.67999C65.946 5.98899 65.962 6.31501 65.962 6.65601V12H64.698V9.92798L64.994 10.12C64.669 10.819 64.213 11.347 63.626 11.704C63.045 12.061 62.335 12.24 61.498 12.24ZM61.714 11.048C62.226 11.048 62.669 10.957 63.042 10.776C63.421 10.589 63.725 10.347 63.954 10.048C64.183 9.74397 64.333 9.41303 64.402 9.05603C64.482 8.78903 64.525 8.49303 64.53 8.16803C64.541 7.83703 64.546 7.58402 64.546 7.40802L65.042 7.62402C64.578 7.68802 64.122 7.74898 63.674 7.80798C63.226 7.86698 62.802 7.931 62.402 8C62.002 8.064 61.642 8.14099 61.322 8.23199C61.087 8.30699 60.866 8.40302 60.658 8.52002C60.455 8.63702 60.29 8.78901 60.162 8.97601C60.039 9.15701 59.978 9.38401 59.978 9.65601C59.978 9.89101 60.037 10.115 60.154 10.328C60.277 10.541 60.463 10.715 60.714 10.848C60.97 10.981 61.303 11.048 61.714 11.048ZM71.682 12.24C70.807 12.24 70.063 12.045 69.45 11.656C68.842 11.261 68.378 10.72 68.058 10.032C67.738 9.34398 67.573 8.55999 67.562 7.67999C67.573 6.77899 67.741 5.98702 68.066 5.30402C68.397 4.61602 68.869 4.07998 69.482 3.69598C70.095 3.31198 70.834 3.12 71.698 3.12C72.61 3.12 73.394 3.34399 74.05 3.79199C74.711 4.23999 75.154 4.85302 75.378 5.63202L73.97 6.05603C73.789 5.55503 73.493 5.165 73.082 4.888C72.677 4.611 72.21 4.47198 71.682 4.47198C71.09 4.47198 70.602 4.611 70.218 4.888C69.834 5.16 69.549 5.53899 69.362 6.02399C69.175 6.50399 69.079 7.05599 69.074 7.67999C69.085 8.63999 69.306 9.416 69.738 10.008C70.175 10.595 70.823 10.888 71.682 10.888C72.247 10.888 72.717 10.76 73.09 10.504C73.463 10.243 73.746 9.86698 73.938 9.37598L75.378 9.75201C75.079 10.557 74.613 11.173 73.978 11.6C73.343 12.027 72.578 12.24 71.682 12.24ZM81.835 12C81.323 12.101 80.816 12.141 80.315 12.12C79.819 12.104 79.376 12.005 78.987 11.824C78.597 11.637 78.301 11.349 78.099 10.96C77.928 10.619 77.835 10.275 77.819 9.92798C77.808 9.57598 77.803 9.17902 77.803 8.73602V0.960022H79.227V8.672C79.227 9.024 79.229 9.32499 79.235 9.57599C79.245 9.82699 79.301 10.043 79.403 10.224C79.595 10.565 79.899 10.765 80.315 10.824C80.736 10.883 81.243 10.867 81.835 10.776V12ZM76.051 4.53601V3.35999H81.835V4.53601H76.051ZM86.909 12.24C86.051 12.24 85.309 12.045 84.685 11.656C84.067 11.267 83.589 10.728 83.253 10.04C82.917 9.35198 82.749 8.563 82.749 7.672C82.749 6.765 82.92 5.97102 83.261 5.28802C83.603 4.60502 84.085 4.07498 84.709 3.69598C85.333 3.31198 86.067 3.12 86.909 3.12C87.773 3.12 88.517 3.31498 89.141 3.70398C89.765 4.08798 90.243 4.62401 90.573 5.31201C90.909 5.99501 91.077 6.781 91.077 7.672C91.077 8.573 90.909 9.36803 90.573 10.056C90.237 10.739 89.757 11.275 89.133 11.664C88.509 12.048 87.768 12.24 86.909 12.24ZM86.909 10.888C87.805 10.888 88.472 10.589 88.909 9.992C89.347 9.395 89.565 8.621 89.565 7.672C89.565 6.696 89.344 5.91999 88.901 5.34399C88.459 4.76299 87.795 4.47198 86.909 4.47198C86.307 4.47198 85.811 4.60801 85.421 4.88C85.032 5.152 84.741 5.528 84.549 6.008C84.357 6.488 84.261 7.043 84.261 7.672C84.261 8.643 84.485 9.421 84.933 10.008C85.381 10.595 86.04 10.888 86.909 10.888ZM92.839 12V3.35999H94.111V5.448L93.903 5.17603C94.004 4.90903 94.135 4.664 94.295 4.44C94.46 4.216 94.644 4.032 94.847 3.888C95.071 3.707 95.324 3.56798 95.607 3.47198C95.889 3.37598 96.177 3.32002 96.471 3.30402C96.764 3.28302 97.039 3.30099 97.295 3.35999V4.69598C96.996 4.61598 96.668 4.59502 96.311 4.63202C95.953 4.66902 95.623 4.79999 95.319 5.02399C95.041 5.22099 94.825 5.46102 94.671 5.74402C94.521 6.02702 94.417 6.333 94.359 6.664C94.3 6.989 94.271 7.323 94.271 7.664V12H92.839ZM101.759 12.232C100.73 12.232 99.884 12.008 99.223 11.56C98.567 11.107 98.164 10.475 98.015 9.664L99.471 9.43201C99.588 9.90101 99.858 10.275 100.279 10.552C100.7 10.824 101.223 10.96 101.847 10.96C102.439 10.96 102.903 10.837 103.239 10.592C103.575 10.347 103.743 10.013 103.743 9.59198C103.743 9.34698 103.687 9.149 103.575 9C103.463 8.845 103.231 8.70099 102.879 8.56799C102.532 8.43499 102.007 8.27501 101.303 8.08801C100.54 7.88501 99.94 7.67499 99.503 7.45599C99.066 7.23699 98.754 6.98398 98.567 6.69598C98.38 6.40798 98.287 6.05901 98.287 5.64801C98.287 5.14101 98.426 4.69901 98.703 4.32001C98.98 3.93601 99.367 3.64001 99.863 3.43201C100.364 3.22401 100.946 3.12 101.607 3.12C102.263 3.12 102.85 3.22401 103.367 3.43201C103.884 3.64001 104.3 3.93601 104.615 4.32001C104.935 4.69901 105.124 5.14101 105.183 5.64801L103.727 5.91199C103.658 5.44799 103.434 5.08298 103.055 4.81598C102.682 4.54898 102.199 4.40803 101.607 4.39203C101.047 4.37103 100.591 4.46899 100.239 4.68799C99.892 4.90699 99.719 5.20299 99.719 5.57599C99.719 5.78399 99.783 5.963 99.911 6.112C100.044 6.261 100.287 6.40301 100.639 6.53601C100.996 6.66901 101.514 6.821 102.191 6.992C102.954 7.184 103.554 7.39502 103.991 7.62402C104.434 7.84802 104.748 8.11501 104.935 8.42401C105.122 8.72801 105.215 9.104 105.215 9.552C105.215 10.384 104.908 11.04 104.295 11.52C103.682 11.995 102.836 12.232 101.759 12.232ZM111.303 7.54401V6.36798H120.847L118.383 3.90399L119.111 3.17603L122.895 6.96002L119.111 10.744L118.383 10.016L120.855 7.54401H111.303Z" fill="#3B82F6"/>
</svg>
