<svg width="102" height="16" viewBox="0 0 102 16" fill="none" xmlns="http://www.w3.org/2000/svg">
<path d="M5.20996 12.24C4.38996 12.24 3.66 12.1 3 11.82C2.35 11.55 1.81 11.1501 1.38 10.6401C0.960005 10.1201 0.690059 9.51011 0.560059 8.81011L2.03003 8.58C2.22003 9.3 2.60994 9.87008 3.18994 10.2801C3.77994 10.6901 4.48003 10.8901 5.28003 10.8901C5.80003 10.8901 6.26005 10.8101 6.68005 10.6501C7.10005 10.4801 7.43005 10.25 7.68005 9.93999C7.93005 9.63999 8.05005 9.28003 8.05005 8.86003C8.05005 8.61003 8.00003 8.39001 7.91003 8.21001C7.83003 8.02001 7.71005 7.86004 7.55005 7.74004C7.40005 7.60004 7.23004 7.49007 7.04004 7.40007C6.85004 7.31007 6.64994 7.2301 6.43994 7.1801L3.5 6.3001C3.18 6.2101 2.86996 6.08999 2.57996 5.93999C2.27996 5.78999 2.01003 5.61006 1.78003 5.39006C1.54003 5.17006 1.34997 4.90001 1.21997 4.59001C1.07997 4.28001 1.01001 3.91003 1.01001 3.48003C1.01001 2.80003 1.18004 2.22004 1.54004 1.74004C1.89004 1.25004 2.37998 0.880043 2.97998 0.620043C3.58998 0.370043 4.28004 0.240048 5.04004 0.250048C5.81004 0.250048 6.49999 0.390083 7.10999 0.660083C7.72999 0.930083 8.23 1.30999 8.63 1.81999C9.04 2.31999 9.30995 2.92004 9.44995 3.62004L7.93994 3.88005C7.85994 3.41005 7.68002 3.01009 7.40002 2.67009C7.13002 2.33009 6.79 2.07006 6.38 1.89006C5.97 1.70006 5.51002 1.61002 5.02002 1.60002C4.55002 1.59002 4.13 1.66999 3.75 1.81999C3.37 1.97999 3.06998 2.19002 2.84998 2.47002C2.61998 2.74002 2.51001 3.06009 2.51001 3.42009C2.51001 3.77009 2.60995 4.05007 2.81995 4.27007C3.01995 4.49007 3.27006 4.66008 3.56006 4.78008C3.86006 4.91008 4.15005 5.01001 4.43005 5.09001L6.62 5.72002C6.87 5.79002 7.15999 5.89006 7.48999 6.01006C7.81999 6.13006 8.13995 6.30008 8.44995 6.53008C8.75995 6.75008 9.00997 7.04008 9.21997 7.41008C9.41997 7.77008 9.52002 8.23008 9.52002 8.78008C9.52002 9.34008 9.41005 9.83006 9.18005 10.2601C8.97005 10.7001 8.66001 11.06 8.26001 11.35C7.87001 11.64 7.41001 11.8601 6.89001 12.0101C6.37001 12.1601 5.80996 12.24 5.20996 12.24ZM14.9399 12.24C14.0899 12.24 13.35 12.0501 12.72 11.6801C12.09 11.3001 11.6 10.78 11.25 10.1C10.89 9.43002 10.72 8.64004 10.72 7.74004C10.72 6.79004 10.89 5.98009 11.24 5.29009C11.58 4.59009 12.0699 4.05999 12.6899 3.68999C13.3099 3.30999 14.04 3.12004 14.88 3.12004C15.75 3.12004 16.49 3.32002 17.09 3.72002C17.71 4.12002 18.17 4.6901 18.47 5.4301C18.78 6.1701 18.91 7.06 18.87 8.08H17.4301V7.56999C17.4101 6.50999 17.2 5.70999 16.78 5.18999C16.37 4.65999 15.7501 4.40007 14.9301 4.40007C14.0501 4.40007 13.38 4.68005 12.92 5.25005C12.46 5.81005 12.23 6.6201 12.23 7.6801C12.23 8.7001 12.46 9.4901 12.92 10.0501C13.38 10.6101 14.03 10.8901 14.88 10.8901C15.45 10.8901 15.94 10.76 16.37 10.5C16.79 10.23 17.12 9.86004 17.36 9.37004L18.73 9.84001C18.39 10.6 17.88 11.19 17.21 11.62C16.53 12.03 15.7799 12.24 14.9399 12.24ZM11.75 8.08V6.93999H18.13V8.08H11.75ZM24.4 12.24C23.55 12.24 22.81 12.0501 22.17 11.6801C21.54 11.3001 21.05 10.78 20.7 10.1C20.35 9.43002 20.17 8.64004 20.17 7.74004C20.17 6.79004 20.3399 5.98009 20.6899 5.29009C21.0399 4.59009 21.52 4.05999 22.14 3.68999C22.76 3.30999 23.49 3.12004 24.33 3.12004C25.2 3.12004 25.94 3.32002 26.55 3.72002C27.16 4.12002 27.62 4.6901 27.92 5.4301C28.23 6.1701 28.3699 7.06 28.3199 8.08H26.88V7.56999C26.87 6.50999 26.65 5.70999 26.24 5.18999C25.82 4.65999 25.2 4.40007 24.38 4.40007C23.5 4.40007 22.83 4.68005 22.37 5.25005C21.91 5.81005 21.6801 6.6201 21.6801 7.6801C21.6801 8.7001 21.91 9.4901 22.37 10.0501C22.83 10.6101 23.48 10.8901 24.33 10.8901C24.9 10.8901 25.3999 10.76 25.8199 10.5C26.2399 10.23 26.5701 9.86004 26.8101 9.37004L28.1801 9.84001C27.8401 10.6 27.34 11.19 26.66 11.62C25.99 12.03 25.23 12.24 24.4 12.24ZM21.2 8.08V6.93999H27.59V8.08H21.2ZM39.46 12V7.67009C39.46 7.26009 39.42 6.87004 39.35 6.49004C39.28 6.11004 39.15 5.77002 38.97 5.47002C38.8 5.17002 38.56 4.93005 38.25 4.75005C37.95 4.58005 37.57 4.49004 37.12 4.49004C36.76 4.49004 36.43 4.55009 36.14 4.67009C35.85 4.79009 35.6 4.97002 35.4 5.22002C35.19 5.46002 35.02 5.77006 34.91 6.14006C34.8 6.51006 34.74 6.95 34.74 7.45L33.8 7.16008C33.8 6.32008 33.95 5.61006 34.25 5.01006C34.56 4.41006 34.98 3.94004 35.52 3.62004C36.07 3.30004 36.72 3.14006 37.46 3.14006C38.02 3.14006 38.5 3.22007 38.89 3.40007C39.29 3.58007 39.61 3.81002 39.88 4.10002C40.14 4.39002 40.34 4.72 40.49 5.08C40.64 5.44 40.74 5.8001 40.8 6.1801C40.87 6.5401 40.9 6.89002 40.9 7.22002V12H39.46ZM33.3 12V0.480029H34.58V6.84001H34.74V12H33.3ZM43.14 1.83V0.360034H44.5601V1.83H43.14ZM43.14 12V3.36003H44.5601V12H43.14ZM50.23 12.23C49.2 12.23 48.3499 12.0101 47.6899 11.5601C47.0399 11.1101 46.63 10.4701 46.48 9.66008L47.9399 9.4301C48.0599 9.9001 48.33 10.2701 48.75 10.5501C49.17 10.8201 49.6899 10.96 50.3199 10.96C50.9099 10.96 51.37 10.84 51.71 10.59C52.04 10.35 52.21 10.01 52.21 9.59001C52.21 9.35001 52.16 9.15005 52.04 9.00005C51.93 8.85005 51.7 8.69999 51.35 8.56999C51 8.42999 50.48 8.27001 49.77 8.09001C49.01 7.89001 48.41 7.67001 47.97 7.46001C47.53 7.24001 47.22 6.98 47.04 6.7C46.85 6.41 46.76 6.06007 46.76 5.65007C46.76 5.14007 46.89 4.69999 47.17 4.31999C47.45 3.93999 47.84 3.6401 48.33 3.4301C48.83 3.2201 49.41 3.12004 50.08 3.12004C50.73 3.12004 51.32 3.2201 51.84 3.4301C52.35 3.6401 52.77 3.93999 53.08 4.31999C53.4 4.69999 53.59 5.14007 53.65 5.65007L52.2 5.91008C52.13 5.45008 51.9 5.07999 51.52 4.81999C51.15 4.54999 50.67 4.41006 50.08 4.39006C49.52 4.37006 49.06 4.46999 48.71 4.68999C48.36 4.90999 48.1899 5.2 48.1899 5.58C48.1899 5.78 48.25 5.96003 48.38 6.11003C48.51 6.26003 48.76 6.40009 49.11 6.54009C49.47 6.67009 49.98 6.82004 50.66 6.99004C51.42 7.18004 52.02 7.39004 52.46 7.62004C52.9 7.85004 53.22 8.11009 53.4 8.42009C53.59 8.73009 53.6801 9.1001 53.6801 9.5501C53.6801 10.3801 53.38 11.0401 52.76 11.5201C52.15 11.9901 51.31 12.23 50.23 12.23ZM60.27 12C59.76 12.1 59.25 12.14 58.75 12.12C58.26 12.1 57.81 12.01 57.42 11.82C57.03 11.64 56.74 11.35 56.54 10.96C56.37 10.62 56.27 10.2701 56.26 9.9301C56.25 9.5801 56.24 9.18004 56.24 8.74004V0.960009H57.66V8.67009C57.66 9.02009 57.67 9.33 57.67 9.58C57.68 9.83 57.74 10.04 57.84 10.22C58.03 10.57 58.34 10.77 58.75 10.82C59.17 10.88 59.68 10.8701 60.27 10.7801V12ZM54.49 4.54009V3.36003H60.27V4.54009H54.49ZM65.35 12.24C64.49 12.24 63.75 12.0501 63.12 11.6601C62.5 11.2701 62.0299 10.7301 61.6899 10.0401C61.3499 9.35009 61.1899 8.56009 61.1899 7.67009C61.1899 6.77009 61.36 5.97009 61.7 5.29009C62.04 4.61009 62.52 4.07 63.15 3.7C63.77 3.31 64.5 3.12004 65.35 3.12004C66.21 3.12004 66.95 3.31 67.58 3.7C68.2 4.09 68.68 4.62011 69.01 5.31011C69.35 5.99011 69.51 6.78009 69.51 7.67009C69.51 8.57009 69.35 9.37011 69.01 10.0601C68.67 10.7401 68.1899 11.2701 67.5699 11.6601C66.9499 12.0501 66.21 12.24 65.35 12.24ZM65.35 10.8901C66.24 10.8901 66.91 10.59 67.35 9.99004C67.78 9.39004 68 8.62009 68 7.67009C68 6.70009 67.78 5.92001 67.34 5.34001C66.9 4.76001 66.23 4.47002 65.35 4.47002C64.74 4.47002 64.25 4.61005 63.86 4.88005C63.47 5.15005 63.18 5.53006 62.99 6.01006C62.79 6.49006 62.7 7.04009 62.7 7.67009C62.7 8.64009 62.92 9.42006 63.37 10.0101C63.82 10.5901 64.48 10.8901 65.35 10.8901ZM71.28 12V3.36003H72.55V5.45L72.34 5.1801C72.44 4.9101 72.57 4.65999 72.73 4.43999C72.9 4.21999 73.08 4.03006 73.28 3.89006C73.51 3.71006 73.76 3.57002 74.04 3.47002C74.33 3.38002 74.61 3.3201 74.91 3.3001C75.2 3.2801 75.48 3.30003 75.73 3.36003V4.7C75.43 4.62 75.11 4.59005 74.75 4.63005C74.39 4.67005 74.06 4.80007 73.76 5.02007C73.48 5.22007 73.26 5.46004 73.11 5.74004C72.96 6.03004 72.85 6.33008 72.8 6.66008C72.74 6.99008 72.71 7.32008 72.71 7.66008V12H71.28ZM78.29 15.84L79.96 11.3001L79.98 12.6401L76.21 3.36003H77.7L80.66 10.82H80.15L82.9301 3.36003H84.38L79.67 15.84H78.29ZM90.02 7.54009V6.37004H99.5699L97.1 3.90007L97.83 3.1801L101.61 6.96001L97.83 10.74L97.1 10.0201L99.5699 7.54009H90.02Z" fill="#3B82F6"/>
</svg>
