<svg width="104" height="13" viewBox="0 0 104 13" fill="none" xmlns="http://www.w3.org/2000/svg">
<path d="M3.93994 12L0.0799561 0.480011H1.56006L4.91003 10.488L8.30005 0.480011H9.78003L5.92004 12H3.93994ZM10.83 1.832V0.359985H12.25V1.832H10.83ZM10.83 12V3.35999H12.25V12H10.83ZM18.4 12.24C17.55 12.24 16.81 12.053 16.17 11.68C15.54 11.301 15.05 10.776 14.7 10.104C14.35 9.427 14.17 8.63699 14.17 7.73599C14.17 6.79199 14.3399 5.97599 14.6899 5.28799C15.0399 4.59499 15.52 4.06099 16.14 3.68799C16.76 3.30899 17.49 3.12 18.33 3.12C19.2 3.12 19.94 3.32 20.55 3.72C21.16 4.12 21.62 4.69101 21.92 5.43201C22.23 6.17301 22.3699 7.05599 22.3199 8.07999H20.88V7.56799C20.87 6.50699 20.65 5.71499 20.24 5.19199C19.82 4.66399 19.2 4.39999 18.38 4.39999C17.5 4.39999 16.83 4.68299 16.37 5.24799C15.91 5.81299 15.6801 6.62399 15.6801 7.67999C15.6801 8.69899 15.91 9.488 16.37 10.048C16.83 10.608 17.48 10.888 18.33 10.888C18.9 10.888 19.3999 10.757 19.8199 10.496C20.2399 10.235 20.5701 9.85901 20.8101 9.36801L22.1801 9.84C21.8401 10.603 21.34 11.195 20.66 11.616C19.99 12.032 19.23 12.24 18.4 12.24ZM15.2 8.07999V6.936H21.59V8.07999H15.2ZM25.63 12L22.99 3.35199L24.41 3.35999L26.34 9.67999L28.28 3.35999H29.54L31.47 9.67999L33.41 3.35999H34.8199L32.1801 12H30.99L28.9 5.43201L26.8199 12H25.63ZM43.1 12.24C42.23 12.24 41.49 12.045 40.87 11.656C40.26 11.261 39.8 10.72 39.48 10.032C39.16 9.34401 38.99 8.55999 38.98 7.67999C38.99 6.77899 39.16 5.98699 39.49 5.30399C39.82 4.61599 40.29 4.08001 40.9 3.69601C41.52 3.31201 42.26 3.12 43.12 3.12C44.03 3.12 44.82 3.34399 45.47 3.79199C46.13 4.23999 46.58 4.85299 46.8 5.63199L45.39 6.056C45.21 5.555 44.91 5.165 44.5 4.888C44.1 4.611 43.63 4.47198 43.1 4.47198C42.51 4.47198 42.02 4.611 41.64 4.888C41.26 5.16 40.97 5.53899 40.78 6.02399C40.6 6.50399 40.5 7.05599 40.5 7.67999C40.51 8.63999 40.73 9.416 41.16 10.008C41.6 10.595 42.25 10.888 43.1 10.888C43.67 10.888 44.14 10.76 44.51 10.504C44.89 10.243 45.17 9.86701 45.36 9.37601L46.8 9.75201C46.5 10.557 46.03 11.173 45.4 11.6C44.77 12.027 44 12.24 43.1 12.24ZM48.36 12V0.23999H49.78V12H48.36ZM54.64 12.24C53.99 12.24 53.45 12.123 53.01 11.888C52.58 11.648 52.25 11.333 52.03 10.944C51.81 10.555 51.7 10.128 51.7 9.664C51.7 9.211 51.79 8.81901 51.96 8.48801C52.13 8.15201 52.3799 7.87501 52.6899 7.65601C53.0099 7.43201 53.3899 7.25599 53.8199 7.12799C54.2299 7.01599 54.69 6.92 55.2 6.84C55.7099 6.755 56.23 6.677 56.75 6.608C57.27 6.539 57.76 6.47199 58.21 6.40799L57.7 6.70401C57.72 5.93601 57.56 5.368 57.24 5C56.92 4.632 56.3599 4.448 55.5699 4.448C55.0499 4.448 54.59 4.56801 54.2 4.80801C53.81 5.04301 53.53 5.42699 53.37 5.95999L52.02 5.552C52.23 4.795 52.63 4.20001 53.23 3.76801C53.83 3.33601 54.61 3.12 55.59 3.12C56.37 3.12 57.05 3.26101 57.61 3.54401C58.17 3.82101 58.5799 4.24301 58.8199 4.80801C58.9499 5.07501 59.0201 5.36499 59.05 5.67999C59.09 5.98899 59.1 6.31501 59.1 6.65601V12H57.84V9.92801L58.13 10.12C57.81 10.819 57.35 11.347 56.77 11.704C56.19 12.061 55.48 12.24 54.64 12.24ZM54.85 11.048C55.37 11.048 55.8101 10.957 56.1801 10.776C56.5601 10.589 56.87 10.347 57.09 10.048C57.32 9.744 57.47 9.413 57.54 9.056C57.62 8.789 57.67 8.493 57.67 8.168C57.68 7.837 57.6899 7.58399 57.6899 7.40799L58.1801 7.62399C57.7201 7.68799 57.2601 7.74901 56.8101 7.80801C56.3701 7.86701 55.94 7.931 55.54 8C55.14 8.064 54.78 8.14099 54.46 8.23199C54.23 8.30699 54.01 8.40299 53.8 8.51999C53.6 8.63699 53.43 8.78901 53.3 8.97601C53.18 9.15701 53.12 9.38401 53.12 9.65601C53.12 9.89101 53.18 10.115 53.29 10.328C53.42 10.541 53.6 10.715 53.85 10.848C54.11 10.981 54.44 11.048 54.85 11.048ZM61.34 1.832V0.359985H62.77V1.832H61.34ZM61.34 12V3.35999H62.77V12H61.34ZM75.49 12L75.5 6.47198C75.5 5.82698 75.33 5.32299 74.98 4.95999C74.64 4.59199 74.2 4.40799 73.65 4.40799C73.33 4.40799 73.02 4.48299 72.73 4.63199C72.45 4.77599 72.21 5.00501 72.03 5.32001C71.85 5.62901 71.76 6.02699 71.76 6.51199L71.01 6.20801C71 5.59501 71.12 5.05901 71.38 4.60001C71.65 4.13601 72.01 3.77599 72.47 3.51999C72.93 3.26399 73.45 3.13599 74.02 3.13599C74.92 3.13599 75.63 3.41099 76.15 3.95999C76.67 4.50399 76.9301 5.237 76.9301 6.16L76.92 12H75.49ZM65.16 12V3.35999H66.4301V5.672H66.59V12H65.16ZM70.33 12L70.34 6.52802C70.34 5.86701 70.17 5.34901 69.83 4.97601C69.49 4.59701 69.04 4.40799 68.47 4.40799C67.91 4.40799 67.46 4.60001 67.11 4.98401C66.76 5.36801 66.59 5.87699 66.59 6.51199L65.84 6.064C65.84 5.504 65.97 5.003 66.24 4.56C66.51 4.117 66.87 3.77099 67.33 3.51999C67.79 3.26399 68.31 3.13599 68.89 3.13599C69.47 3.13599 69.97 3.259 70.41 3.504C70.84 3.749 71.17 4.101 71.41 4.56C71.64 5.013 71.76 5.55499 71.76 6.18399L71.75 12H70.33ZM82.27 12.232C81.25 12.232 80.4 12.008 79.74 11.56C79.08 11.107 78.68 10.475 78.53 9.664L79.99 9.43201C80.1 9.90101 80.37 10.275 80.79 10.552C81.22 10.824 81.74 10.96 82.36 10.96C82.95 10.96 83.42 10.837 83.75 10.592C84.09 10.347 84.26 10.013 84.26 9.59201C84.26 9.34701 84.2 9.149 84.09 9C83.98 8.845 83.75 8.70099 83.39 8.56799C83.05 8.43499 82.5199 8.27501 81.8199 8.08801C81.0599 7.88501 80.46 7.67499 80.02 7.45599C79.58 7.23699 79.27 6.98401 79.08 6.69601C78.9 6.40801 78.8 6.05901 78.8 5.64801C78.8 5.14101 78.94 4.69901 79.22 4.32001C79.5 3.93601 79.88 3.64001 80.38 3.43201C80.88 3.22401 81.46 3.12 82.12 3.12C82.78 3.12 83.37 3.22401 83.88 3.43201C84.4 3.64001 84.82 3.93601 85.13 4.32001C85.45 4.69901 85.64 5.14101 85.7 5.64801L84.24 5.91199C84.17 5.44799 83.9499 5.08301 83.5699 4.81601C83.1999 4.54901 82.71 4.408 82.12 4.392C81.56 4.371 81.11 4.46899 80.75 4.68799C80.41 4.90699 80.23 5.20299 80.23 5.57599C80.23 5.78399 80.3001 5.963 80.4301 6.112C80.5601 6.261 80.8 6.40301 81.15 6.53601C81.51 6.66901 82.03 6.821 82.71 6.992C83.47 7.184 84.07 7.39499 84.51 7.62399C84.95 7.84799 85.2599 8.11501 85.45 8.42401C85.64 8.72801 85.73 9.104 85.73 9.552C85.73 10.384 85.4201 11.04 84.8101 11.52C84.2001 11.995 83.35 12.232 82.27 12.232ZM91.8199 7.54401V6.36801H101.36L98.9 3.90399L99.63 3.17599L103.41 6.95999L99.63 10.744L98.9 10.016L101.37 7.54401H91.8199Z" fill="#3B82F6"/>
</svg>
