<svg width="153" height="13" viewBox="0 0 153 13" fill="none" xmlns="http://www.w3.org/2000/svg">
<path d="M0.119995 12V0.480011H4.67004C4.78004 0.480011 4.91995 0.485002 5.06995 0.496002C5.22995 0.501002 5.38002 0.517006 5.52002 0.544006C6.14002 0.640006 6.66997 0.852991 7.08997 1.18399C7.50997 1.51499 7.83005 1.933 8.05005 2.44C8.26005 2.941 8.37 3.499 8.37 4.112C8.37 5.003 8.14004 5.77601 7.67004 6.43201C7.21004 7.08301 6.53 7.49101 5.63 7.65601L5.08997 7.74399H1.54004V12H0.119995ZM6.97998 12L4.69995 7.31201L6.10999 6.88L8.60999 12H6.97998ZM1.54004 6.392H4.62C4.73 6.392 4.83997 6.38701 4.96997 6.37601C5.09997 6.36501 5.22997 6.34701 5.33997 6.32001C5.70997 6.23501 6.00999 6.07999 6.23999 5.85599C6.46999 5.62699 6.65 5.36 6.75 5.056C6.86 4.747 6.91003 4.432 6.91003 4.112C6.91003 3.792 6.86 3.47999 6.75 3.17599C6.65 2.86699 6.46999 2.59701 6.23999 2.36801C6.00999 2.13901 5.70997 1.98399 5.33997 1.90399C5.22997 1.87199 5.09997 1.85299 4.96997 1.84799C4.83997 1.83699 4.73 1.832 4.62 1.832H1.54004V6.392ZM14.11 12.24C13.27 12.24 12.52 12.053 11.89 11.68C11.26 11.301 10.77 10.776 10.42 10.104C10.07 9.427 9.89001 8.63699 9.89001 7.73599C9.89001 6.79199 10.06 5.97599 10.41 5.28799C10.76 4.59499 11.24 4.06099 11.86 3.68799C12.48 3.30899 13.21 3.12 14.05 3.12C14.92 3.12 15.66 3.32 16.27 3.72C16.88 4.12 17.34 4.69101 17.64 5.43201C17.95 6.17301 18.08 7.05599 18.04 8.07999H16.6V7.56799C16.59 6.50699 16.37 5.71499 15.95 5.19199C15.54 4.66399 14.92 4.39999 14.1 4.39999C13.22 4.39999 12.55 4.68299 12.09 5.24799C11.63 5.81299 11.4 6.62399 11.4 7.67999C11.4 8.69899 11.63 9.488 12.09 10.048C12.55 10.608 13.2 10.888 14.05 10.888C14.62 10.888 15.12 10.757 15.54 10.496C15.96 10.235 16.29 9.85901 16.53 9.36801L17.9 9.84C17.56 10.603 17.06 11.195 16.38 11.616C15.71 12.032 14.95 12.24 14.11 12.24ZM10.92 8.07999V6.936H17.3101V8.07999H10.92ZM21.85 12L18.71 3.35999H20.15L22.5699 10.184L24.99 3.35999H26.4399L23.3 12H21.85ZM28.05 1.832V0.359985H29.47V1.832H28.05ZM28.05 12V3.35999H29.47V12H28.05ZM35.61 12.24C34.77 12.24 34.02 12.053 33.39 11.68C32.76 11.301 32.27 10.776 31.92 10.104C31.57 9.427 31.39 8.63699 31.39 7.73599C31.39 6.79199 31.56 5.97599 31.91 5.28799C32.26 4.59499 32.74 4.06099 33.36 3.68799C33.98 3.30899 34.71 3.12 35.55 3.12C36.42 3.12 37.16 3.32 37.77 3.72C38.38 4.12 38.84 4.69101 39.14 5.43201C39.45 6.17301 39.58 7.05599 39.54 8.07999H38.1V7.56799C38.09 6.50699 37.8699 5.71499 37.45 5.19199C37.04 4.66399 36.42 4.39999 35.6 4.39999C34.72 4.39999 34.05 4.68299 33.59 5.24799C33.13 5.81299 32.9 6.62399 32.9 7.67999C32.9 8.69899 33.13 9.488 33.59 10.048C34.05 10.608 34.7001 10.888 35.55 10.888C36.12 10.888 36.62 10.757 37.04 10.496C37.46 10.235 37.79 9.85901 38.03 9.36801L39.4 9.84C39.06 10.603 38.56 11.195 37.88 11.616C37.21 12.032 36.45 12.24 35.61 12.24ZM32.42 8.07999V6.936H38.8101V8.07999H32.42ZM42.85 12L40.21 3.35199L41.63 3.35999L43.55 9.67999L45.5 3.35999H46.75L48.6899 9.67999L50.63 3.35999H52.03L49.39 12H48.21L46.12 5.43201L44.03 12H42.85ZM60.0699 12.24C59.2699 12.24 58.58 12.04 58 11.64C57.43 11.235 56.98 10.688 56.67 10C56.36 9.312 56.2 8.536 56.2 7.672C56.2 6.808 56.36 6.03199 56.67 5.34399C56.98 4.65599 57.43 4.115 58 3.72C58.58 3.32 59.2699 3.12 60.0699 3.12C60.8799 3.12 61.57 3.31701 62.12 3.71201C62.68 4.10701 63.1 4.648 63.38 5.336C63.67 6.024 63.8101 6.803 63.8101 7.672C63.8101 8.531 63.67 9.307 63.38 10C63.1 10.688 62.68 11.235 62.12 11.64C61.57 12.04 60.8899 12.24 60.0699 12.24ZM60.25 10.936C60.83 10.936 61.3101 10.797 61.6801 10.52C62.0601 10.237 62.33 9.85099 62.51 9.35999C62.69 8.86399 62.78 8.301 62.78 7.672C62.78 7.032 62.69 6.46901 62.51 5.98401C62.33 5.49301 62.0599 5.112 61.6899 4.84C61.3199 4.563 60.86 4.42401 60.29 4.42401C59.7 4.42401 59.22 4.56799 58.83 4.85599C58.46 5.14399 58.17 5.53299 57.99 6.02399C57.81 6.51499 57.71 7.064 57.71 7.672C57.71 8.285 57.81 8.84 57.99 9.336C58.18 9.827 58.46 10.216 58.83 10.504C59.21 10.792 59.69 10.936 60.25 10.936ZM62.78 12V5.64001H62.62V0.480011H64.05V12H62.78ZM70.04 12.24C69.19 12.24 68.4501 12.053 67.8101 11.68C67.1801 11.301 66.69 10.776 66.34 10.104C65.99 9.427 65.8101 8.63699 65.8101 7.73599C65.8101 6.79199 65.99 5.97599 66.33 5.28799C66.68 4.59499 67.16 4.06099 67.78 3.68799C68.4 3.30899 69.13 3.12 69.97 3.12C70.84 3.12 71.5799 3.32 72.1899 3.72C72.7999 4.12 73.2601 4.69101 73.5601 5.43201C73.8701 6.17301 74.01 7.05599 73.96 8.07999H72.52V7.56799C72.51 6.50699 72.29 5.71499 71.88 5.19199C71.46 4.66399 70.84 4.39999 70.02 4.39999C69.14 4.39999 68.47 4.68299 68.01 5.24799C67.55 5.81299 67.3199 6.62399 67.3199 7.67999C67.3199 8.69899 67.55 9.488 68.01 10.048C68.47 10.608 69.12 10.888 69.97 10.888C70.54 10.888 71.04 10.757 71.46 10.496C71.88 10.235 72.21 9.85901 72.45 9.36801L73.8199 9.84C73.4799 10.603 72.98 11.195 72.3 11.616C71.6301 12.032 70.87 12.24 70.04 12.24ZM66.84 8.07999V6.936H73.23V8.07999H66.84ZM80.5699 12C80.0599 12.101 79.55 12.141 79.05 12.12C78.55 12.104 78.11 12.005 77.72 11.824C77.33 11.637 77.04 11.349 76.83 10.96C76.66 10.619 76.57 10.275 76.55 9.92801C76.54 9.57601 76.54 9.17899 76.54 8.73599V0.959991H77.96V8.672C77.96 9.024 77.96 9.32499 77.97 9.57599C77.98 9.82699 78.04 10.043 78.14 10.224C78.33 10.565 78.6301 10.765 79.05 10.824C79.47 10.883 79.9799 10.867 80.5699 10.776V12ZM74.79 4.53601V3.35999H80.5699V4.53601H74.79ZM84.78 12.24C84.13 12.24 83.59 12.123 83.16 11.888C82.72 11.648 82.4 11.333 82.17 10.944C81.95 10.555 81.84 10.128 81.84 9.664C81.84 9.211 81.93 8.81901 82.1 8.48801C82.28 8.15201 82.52 7.87501 82.84 7.65601C83.15 7.43201 83.53 7.25599 83.96 7.12799C84.37 7.01599 84.83 6.92 85.34 6.84C85.85 6.755 86.37 6.677 86.89 6.608C87.41 6.539 87.9 6.47199 88.36 6.40799L87.84 6.70401C87.86 5.93601 87.7 5.368 87.38 5C87.06 4.632 86.5 4.448 85.72 4.448C85.19 4.448 84.73 4.56801 84.34 4.80801C83.95 5.04301 83.68 5.42699 83.52 5.95999L82.16 5.552C82.37 4.795 82.77 4.20001 83.37 3.76801C83.97 3.33601 84.76 3.12 85.73 3.12C86.52 3.12 87.19 3.26101 87.75 3.54401C88.31 3.82101 88.72 4.24301 88.96 4.80801C89.09 5.07501 89.16 5.36499 89.2 5.67999C89.2299 5.98899 89.24 6.31501 89.24 6.65601V12H87.98V9.92801L88.28 10.12C87.95 10.819 87.49 11.347 86.91 11.704C86.33 12.061 85.62 12.24 84.78 12.24ZM85 11.048C85.51 11.048 85.9499 10.957 86.3199 10.776C86.6999 10.589 87.01 10.347 87.24 10.048C87.46 9.744 87.6101 9.413 87.6801 9.056C87.7601 8.789 87.8101 8.493 87.8101 8.168C87.8201 7.837 87.83 7.58399 87.83 7.40799L88.3199 7.62399C87.8599 7.68799 87.4 7.74901 86.96 7.80801C86.51 7.86701 86.0801 7.931 85.6801 8C85.2801 8.064 84.92 8.14099 84.6 8.23199C84.37 8.30699 84.1499 8.40299 83.9399 8.51999C83.7399 8.63699 83.5699 8.78901 83.4399 8.97601C83.3199 9.15701 83.26 9.38401 83.26 9.65601C83.26 9.89101 83.3199 10.115 83.4399 10.328C83.5599 10.541 83.74 10.715 84 10.848C84.25 10.981 84.58 11.048 85 11.048ZM91.48 1.832V0.359985H92.91V1.832H91.48ZM91.48 12V3.35999H92.91V12H91.48ZM95.47 12V0.23999H96.89V12H95.47ZM102.56 12.232C101.53 12.232 100.68 12.008 100.02 11.56C99.36 11.107 98.9601 10.475 98.8101 9.664L100.27 9.43201C100.39 9.90101 100.65 10.275 101.08 10.552C101.5 10.824 102.02 10.96 102.64 10.96C103.24 10.96 103.7 10.837 104.04 10.592C104.37 10.347 104.54 10.013 104.54 9.59201C104.54 9.34701 104.48 9.149 104.37 9C104.26 8.845 104.03 8.70099 103.68 8.56799C103.33 8.43499 102.8 8.27501 102.1 8.08801C101.34 7.88501 100.74 7.67499 100.3 7.45599C99.86 7.23699 99.55 6.98401 99.36 6.69601C99.18 6.40801 99.08 6.05901 99.08 5.64801C99.08 5.14101 99.22 4.69901 99.5 4.32001C99.78 3.93601 100.16 3.64001 100.66 3.43201C101.16 3.22401 101.74 3.12 102.4 3.12C103.06 3.12 103.65 3.22401 104.16 3.43201C104.68 3.64001 105.1 3.93601 105.41 4.32001C105.73 4.69901 105.92 5.14101 105.98 5.64801L104.52 5.91199C104.45 5.44799 104.23 5.08301 103.85 4.81601C103.48 4.54901 103 4.408 102.4 4.392C101.84 4.371 101.39 4.46899 101.04 4.68799C100.69 4.90699 100.52 5.20299 100.52 5.57599C100.52 5.78399 100.58 5.963 100.71 6.112C100.84 6.261 101.08 6.40301 101.44 6.53601C101.79 6.66901 102.31 6.821 102.99 6.992C103.75 7.184 104.35 7.39499 104.79 7.62399C105.23 7.84799 105.55 8.11501 105.73 8.42401C105.92 8.72801 106.01 9.104 106.01 9.552C106.01 10.384 105.71 11.04 105.09 11.52C104.48 11.995 103.63 12.232 102.56 12.232ZM111.14 12V0.23999H112.56V12H111.14ZM115.12 1.832V0.359985H116.55V1.832H115.12ZM115.12 12V3.35999H116.55V12H115.12ZM125.1 12V7.672C125.1 7.261 125.06 6.86701 124.99 6.48801C124.92 6.10901 124.79 5.77098 124.61 5.47198C124.44 5.16798 124.2 4.92801 123.89 4.75201C123.59 4.57601 123.21 4.48801 122.76 4.48801C122.4 4.48801 122.07 4.549 121.78 4.672C121.49 4.789 121.24 4.971 121.04 5.216C120.83 5.461 120.67 5.77101 120.55 6.14401C120.44 6.51201 120.38 6.947 120.38 7.448L119.44 7.16C119.44 6.323 119.59 5.605 119.89 5.008C120.2 4.405 120.62 3.94399 121.16 3.62399C121.71 3.29899 122.36 3.13599 123.1 3.13599C123.66 3.13599 124.14 3.22399 124.53 3.39999C124.93 3.57599 125.25 3.811 125.52 4.104C125.78 4.392 125.98 4.71699 126.13 5.07999C126.28 5.43699 126.39 5.80299 126.44 6.17599C126.51 6.54399 126.54 6.893 126.54 7.224V12H125.1ZM118.94 12V3.35999H120.22V5.672H120.38V12H118.94ZM128.61 12L128.62 0.480011H130.06V7.51999L133.68 3.35999H135.53L131.72 7.67999L135.98 12H133.99L130.06 7.84V12H128.61ZM141.1 7.54401V6.36801H150.64L148.18 3.90399L148.91 3.17599L152.69 6.95999L148.91 10.744L148.18 10.016L150.65 7.54401H141.1Z" fill="#3B82F6"/>
</svg>
