<svg width="108" height="16" viewBox="0 0 108 16" fill="none" xmlns="http://www.w3.org/2000/svg">
<path d="M3.93597 12L0.0800171 0.47998H1.56L4.91199 10.488L8.29602 0.47998H9.776L5.91998 12H3.93597ZM10.827 1.83197V0.359985H12.251V1.83197H10.827ZM10.827 12V3.35999H12.251V12H10.827ZM18.395 12.24C17.547 12.24 16.806 12.053 16.171 11.68C15.542 11.301 15.051 10.776 14.699 10.104C14.347 9.427 14.171 8.63702 14.171 7.73602C14.171 6.79202 14.345 5.97603 14.691 5.28802C15.038 4.59503 15.521 4.06099 16.139 3.68799C16.763 3.30899 17.494 3.12 18.331 3.12C19.201 3.12 19.939 3.31997 20.547 3.71997C21.161 4.11997 21.619 4.69101 21.923 5.43201C22.233 6.17301 22.366 7.05602 22.323 8.08002H20.883V7.56799C20.867 6.50699 20.651 5.71502 20.235 5.19202C19.819 4.66402 19.201 4.40002 18.379 4.40002C17.499 4.40002 16.83 4.68299 16.371 5.24799C15.913 5.81299 15.683 6.62399 15.683 7.67999C15.683 8.69899 15.913 9.48797 16.371 10.048C16.83 10.608 17.483 10.888 18.331 10.888C18.902 10.888 19.398 10.757 19.819 10.496C20.241 10.235 20.571 9.85898 20.811 9.36798L22.179 9.84003C21.843 10.603 21.337 11.195 20.659 11.616C19.987 12.032 19.233 12.24 18.395 12.24ZM15.203 8.08002V6.93597H21.587V8.08002H15.203ZM25.632 12L22.992 3.35199L24.408 3.35999L26.336 9.67999L28.28 3.35999H29.536L31.472 9.67999L33.408 3.35999H34.816L32.176 12H30.992L28.904 5.43201L26.816 12H25.632ZM45.616 12V7.672C45.616 7.261 45.578 6.86698 45.504 6.48798C45.434 6.10898 45.309 5.77098 45.128 5.47198C44.952 5.16798 44.712 4.92801 44.408 4.75201C44.109 4.57601 43.73 4.48798 43.272 4.48798C42.914 4.48798 42.589 4.549 42.296 4.672C42.008 4.789 41.76 4.971 41.552 5.216C41.344 5.461 41.181 5.77098 41.064 6.14398C40.952 6.51198 40.896 6.947 40.896 7.448L39.96 7.15997C39.96 6.32297 40.109 5.605 40.408 5.008C40.712 4.405 41.136 3.94402 41.68 3.62402C42.229 3.29902 42.874 3.13599 43.616 3.13599C44.176 3.13599 44.653 3.22402 45.048 3.40002C45.442 3.57602 45.77 3.811 46.032 4.104C46.293 4.392 46.498 4.71702 46.648 5.08002C46.797 5.43702 46.901 5.80303 46.96 6.17603C47.024 6.54403 47.056 6.893 47.056 7.224V12H45.616ZM39.456 12V0.47998H40.736V6.84003H40.896V12H39.456ZM49.296 1.83197V0.359985H50.72V1.83197H49.296ZM49.296 12V3.35999H50.72V12H49.296ZM56.384 12.232C55.355 12.232 54.509 12.008 53.848 11.56C53.192 11.107 52.789 10.475 52.64 9.664L54.096 9.43201C54.213 9.90101 54.483 10.275 54.904 10.552C55.325 10.824 55.848 10.96 56.472 10.96C57.064 10.96 57.528 10.837 57.864 10.592C58.2 10.347 58.368 10.013 58.368 9.59198C58.368 9.34698 58.312 9.149 58.2 9C58.088 8.845 57.856 8.70099 57.504 8.56799C57.157 8.43499 56.632 8.27501 55.928 8.08801C55.165 7.88501 54.565 7.67499 54.128 7.45599C53.691 7.23699 53.379 6.98398 53.192 6.69598C53.005 6.40798 52.912 6.05901 52.912 5.64801C52.912 5.14101 53.051 4.69901 53.328 4.32001C53.605 3.93601 53.992 3.64001 54.488 3.43201C54.989 3.22401 55.571 3.12 56.232 3.12C56.888 3.12 57.475 3.22401 57.992 3.43201C58.509 3.64001 58.925 3.93601 59.24 4.32001C59.56 4.69901 59.749 5.14101 59.808 5.64801L58.352 5.91199C58.283 5.44799 58.059 5.08298 57.68 4.81598C57.307 4.54898 56.824 4.40803 56.232 4.39203C55.672 4.37103 55.216 4.46899 54.864 4.68799C54.517 4.90699 54.344 5.20299 54.344 5.57599C54.344 5.78399 54.408 5.963 54.536 6.112C54.669 6.261 54.912 6.40301 55.264 6.53601C55.621 6.66901 56.139 6.821 56.816 6.992C57.579 7.184 58.179 7.39502 58.616 7.62402C59.059 7.84802 59.373 8.11501 59.56 8.42401C59.747 8.72801 59.84 9.104 59.84 9.552C59.84 10.384 59.533 11.04 58.92 11.52C58.307 11.995 57.461 12.232 56.384 12.232ZM66.428 12C65.916 12.101 65.41 12.141 64.908 12.12C64.412 12.104 63.97 12.005 63.58 11.824C63.191 11.637 62.895 11.349 62.692 10.96C62.522 10.619 62.428 10.275 62.412 9.92798C62.402 9.57598 62.396 9.17902 62.396 8.73602V0.960022H63.82V8.672C63.82 9.024 63.823 9.32499 63.828 9.57599C63.839 9.82699 63.895 10.043 63.996 10.224C64.188 10.565 64.492 10.765 64.908 10.824C65.33 10.883 65.836 10.867 66.428 10.776V12ZM60.644 4.53601V3.35999H66.428V4.53601H60.644ZM71.503 12.24C70.644 12.24 69.903 12.045 69.279 11.656C68.66 11.267 68.183 10.728 67.847 10.04C67.511 9.35198 67.343 8.563 67.343 7.672C67.343 6.765 67.514 5.97102 67.855 5.28802C68.196 4.60502 68.679 4.07498 69.303 3.69598C69.927 3.31198 70.66 3.12 71.503 3.12C72.367 3.12 73.111 3.31498 73.735 3.70398C74.359 4.08798 74.836 4.62401 75.167 5.31201C75.503 5.99501 75.671 6.781 75.671 7.672C75.671 8.573 75.503 9.36803 75.167 10.056C74.831 10.739 74.351 11.275 73.727 11.664C73.103 12.048 72.362 12.24 71.503 12.24ZM71.503 10.888C72.399 10.888 73.066 10.589 73.503 9.992C73.94 9.395 74.159 8.621 74.159 7.672C74.159 6.696 73.938 5.91999 73.495 5.34399C73.052 4.76299 72.388 4.47198 71.503 4.47198C70.9 4.47198 70.404 4.60801 70.015 4.88C69.626 5.152 69.335 5.528 69.143 6.008C68.951 6.488 68.855 7.043 68.855 7.672C68.855 8.643 69.079 9.421 69.527 10.008C69.975 10.595 70.634 10.888 71.503 10.888ZM77.433 12V3.35999H78.705V5.448L78.497 5.17603C78.598 4.90903 78.729 4.664 78.889 4.44C79.054 4.216 79.238 4.032 79.441 3.888C79.665 3.707 79.918 3.56798 80.201 3.47198C80.483 3.37598 80.771 3.32002 81.065 3.30402C81.358 3.28302 81.633 3.30099 81.889 3.35999V4.69598C81.59 4.61598 81.262 4.59502 80.905 4.63202C80.547 4.66902 80.217 4.79999 79.913 5.02399C79.635 5.22099 79.419 5.46102 79.265 5.74402C79.115 6.02702 79.011 6.333 78.953 6.664C78.894 6.989 78.865 7.323 78.865 7.664V12H77.433ZM84.445 15.84L86.117 11.296L86.141 12.64L82.365 3.35999H83.861L86.821 10.824H86.309L89.085 3.35999H90.533L85.829 15.84H84.445ZM96.178 7.54401V6.36798H105.722L103.258 3.90399L103.986 3.17603L107.77 6.96002L103.986 10.744L103.258 10.016L105.73 7.54401H96.178Z" fill="#3B82F6"/>
</svg>
