<svg width="106" height="16" viewBox="0 0 106 16" fill="none" xmlns="http://www.w3.org/2000/svg">
<path d="M3.93994 12L0.0799561 0.480011H1.56006L4.91003 10.488L8.30005 0.480011H9.78003L5.92004 12H3.93994ZM10.83 1.832V0.359985H12.25V1.832H10.83ZM10.83 12V3.35999H12.25V12H10.83ZM18.4 12.24C17.55 12.24 16.81 12.053 16.17 11.68C15.54 11.301 15.05 10.776 14.7 10.104C14.35 9.427 14.17 8.63699 14.17 7.73599C14.17 6.79199 14.3399 5.97599 14.6899 5.28799C15.0399 4.59499 15.52 4.06099 16.14 3.68799C16.76 3.30899 17.49 3.12 18.33 3.12C19.2 3.12 19.94 3.32 20.55 3.72C21.16 4.12 21.62 4.69101 21.92 5.43201C22.23 6.17301 22.3699 7.05599 22.3199 8.07999H20.88V7.56799C20.87 6.50699 20.65 5.71499 20.24 5.19199C19.82 4.66399 19.2 4.39999 18.38 4.39999C17.5 4.39999 16.83 4.68299 16.37 5.24799C15.91 5.81299 15.6801 6.62399 15.6801 7.67999C15.6801 8.69899 15.91 9.488 16.37 10.048C16.83 10.608 17.48 10.888 18.33 10.888C18.9 10.888 19.3999 10.757 19.8199 10.496C20.2399 10.235 20.5701 9.85901 20.8101 9.36801L22.1801 9.84C21.8401 10.603 21.34 11.195 20.66 11.616C19.99 12.032 19.23 12.24 18.4 12.24ZM15.2 8.07999V6.936H21.59V8.07999H15.2ZM25.63 12L22.99 3.35199L24.41 3.35999L26.34 9.67999L28.28 3.35999H29.54L31.47 9.67999L33.41 3.35999H34.8199L32.1801 12H30.99L28.9 5.43201L26.8199 12H25.63ZM39.46 12V3.35999H40.74V5.448L40.53 5.17599C40.63 4.90899 40.76 4.664 40.92 4.44C41.09 4.216 41.27 4.032 41.47 3.888C41.7 3.707 41.95 3.56798 42.23 3.47198C42.51 3.37598 42.8 3.31999 43.1 3.30399C43.39 3.28299 43.66 3.30099 43.92 3.35999V4.69601C43.62 4.61601 43.2899 4.59499 42.9399 4.63199C42.5799 4.66899 42.2499 4.79999 41.9399 5.02399C41.6699 5.22099 41.4501 5.46099 41.3 5.74399C41.15 6.02699 41.04 6.333 40.98 6.664C40.93 6.989 40.9 7.323 40.9 7.664V12H39.46ZM49.02 12.24C48.17 12.24 47.43 12.053 46.8 11.68C46.17 11.301 45.6799 10.776 45.3199 10.104C44.9699 9.427 44.8 8.63699 44.8 7.73599C44.8 6.79199 44.9699 5.97599 45.3199 5.28799C45.6599 4.59499 46.15 4.06099 46.76 3.68799C47.39 3.30899 48.12 3.12 48.96 3.12C49.83 3.12 50.56 3.32 51.17 3.72C51.79 4.12 52.24 4.69101 52.55 5.43201C52.8601 6.17301 52.99 7.05599 52.95 8.07999H51.51V7.56799C51.49 6.50699 51.28 5.71499 50.86 5.19199C50.44 4.66399 49.83 4.39999 49 4.39999C48.12 4.39999 47.45 4.68299 47 5.24799C46.54 5.81299 46.3101 6.62399 46.3101 7.67999C46.3101 8.69899 46.54 9.488 47 10.048C47.45 10.608 48.11 10.888 48.96 10.888C49.53 10.888 50.0199 10.757 50.4399 10.496C50.8699 10.235 51.1999 9.85901 51.4399 9.36801L52.8 9.84C52.47 10.603 51.96 11.195 51.28 11.616C50.61 12.032 49.86 12.24 49.02 12.24ZM45.83 8.07999V6.936H52.21V8.07999H45.83ZM58.46 12.24C57.65 12.24 56.97 12.04 56.42 11.64C55.86 11.235 55.44 10.688 55.15 10C54.87 9.307 54.73 8.531 54.73 7.672C54.73 6.803 54.87 6.024 55.15 5.336C55.44 4.648 55.86 4.10701 56.42 3.71201C56.98 3.31701 57.66 3.12 58.47 3.12C59.27 3.12 59.96 3.32 60.54 3.72C61.12 4.115 61.56 4.65599 61.87 5.34399C62.18 6.03199 62.34 6.808 62.34 7.672C62.34 8.536 62.18 9.312 61.87 10C61.56 10.688 61.12 11.235 60.54 11.64C59.96 12.04 59.27 12.24 58.46 12.24ZM54.49 15.84V3.35999H55.76V9.72H55.92V15.84H54.49ZM58.29 10.936C58.86 10.936 59.33 10.792 59.7 10.504C60.08 10.216 60.36 9.827 60.54 9.336C60.73 8.84 60.8199 8.285 60.8199 7.672C60.8199 7.064 60.73 6.51499 60.54 6.02399C60.36 5.53299 60.08 5.14399 59.7 4.85599C59.32 4.56799 58.83 4.42401 58.25 4.42401C57.69 4.42401 57.22 4.563 56.86 4.84C56.49 5.112 56.21 5.49301 56.03 5.98401C55.85 6.46901 55.76 7.032 55.76 7.672C55.76 8.301 55.85 8.86399 56.02 9.35999C56.2 9.85099 56.48 10.237 56.86 10.52C57.23 10.797 57.71 10.936 58.29 10.936ZM67.77 12.24C66.91 12.24 66.17 12.045 65.54 11.656C64.93 11.267 64.45 10.728 64.11 10.04C63.78 9.35201 63.61 8.563 63.61 7.672C63.61 6.765 63.78 5.97099 64.12 5.28799C64.46 4.60499 64.9399 4.07501 65.5699 3.69601C66.1899 3.31201 66.93 3.12 67.77 3.12C68.63 3.12 69.38 3.31501 70 3.70401C70.62 4.08801 71.1001 4.62401 71.4301 5.31201C71.7701 5.99501 71.9399 6.781 71.9399 7.672C71.9399 8.573 71.7701 9.368 71.4301 10.056C71.1001 10.739 70.62 11.275 69.99 11.664C69.37 12.048 68.63 12.24 67.77 12.24ZM67.77 10.888C68.66 10.888 69.33 10.589 69.77 9.992C70.21 9.395 70.42 8.621 70.42 7.672C70.42 6.696 70.2 5.91999 69.76 5.34399C69.32 4.76299 68.65 4.47198 67.77 4.47198C67.17 4.47198 66.67 4.60801 66.28 4.88C65.89 5.152 65.6 5.528 65.41 6.008C65.22 6.488 65.12 7.043 65.12 7.672C65.12 8.643 65.34 9.421 65.79 10.008C66.24 10.595 66.9 10.888 67.77 10.888ZM73.7 12V3.35999H74.97V5.448L74.76 5.17599C74.86 4.90899 74.99 4.664 75.15 4.44C75.32 4.216 75.5 4.032 75.71 3.888C75.93 3.707 76.18 3.56798 76.47 3.47198C76.75 3.37598 77.04 3.31999 77.33 3.30399C77.62 3.28299 77.9 3.30099 78.15 3.35999V4.69601C77.86 4.61601 77.53 4.59499 77.17 4.63199C76.81 4.66899 76.4801 4.79999 76.1801 5.02399C75.9001 5.22099 75.68 5.46099 75.53 5.74399C75.38 6.02699 75.28 6.333 75.22 6.664C75.16 6.989 75.13 7.323 75.13 7.664V12H73.7ZM84.49 12C83.98 12.101 83.47 12.141 82.97 12.12C82.47 12.104 82.03 12.005 81.64 11.824C81.25 11.637 80.96 11.349 80.75 10.96C80.58 10.619 80.49 10.275 80.47 9.92801C80.46 9.57601 80.46 9.17899 80.46 8.73599V0.959991H81.88V8.672C81.88 9.024 81.89 9.32499 81.89 9.57599C81.9 9.82699 81.9601 10.043 82.0601 10.224C82.2501 10.565 82.55 10.765 82.97 10.824C83.39 10.883 83.9 10.867 84.49 10.776V12ZM78.71 4.53601V3.35999H84.49V4.53601H78.71ZM93.77 7.54401V6.36801H103.32L100.85 3.90399L101.58 3.17599L105.36 6.95999L101.58 10.744L100.85 10.016L103.32 7.54401H93.77Z" fill="#3B82F6"/>
</svg>
