<svg width="97" height="13" viewBox="0 0 97 13" fill="none" xmlns="http://www.w3.org/2000/svg">
<path d="M3.93597 12L0.0800171 0.47998H1.56L4.91199 10.488L8.29602 0.47998H9.776L5.91998 12H3.93597ZM10.827 1.83197V0.359985H12.251V1.83197H10.827ZM10.827 12V3.35999H12.251V12H10.827ZM18.395 12.24C17.547 12.24 16.806 12.053 16.171 11.68C15.542 11.301 15.051 10.776 14.699 10.104C14.347 9.427 14.171 8.63702 14.171 7.73602C14.171 6.79202 14.345 5.97603 14.691 5.28802C15.038 4.59503 15.521 4.06099 16.139 3.68799C16.763 3.30899 17.494 3.12 18.331 3.12C19.201 3.12 19.939 3.31997 20.547 3.71997C21.161 4.11997 21.619 4.69101 21.923 5.43201C22.233 6.17301 22.366 7.05602 22.323 8.08002H20.883V7.56799C20.867 6.50699 20.651 5.71502 20.235 5.19202C19.819 4.66402 19.201 4.40002 18.379 4.40002C17.499 4.40002 16.83 4.68299 16.371 5.24799C15.913 5.81299 15.683 6.62399 15.683 7.67999C15.683 8.69899 15.913 9.48797 16.371 10.048C16.83 10.608 17.483 10.888 18.331 10.888C18.902 10.888 19.398 10.757 19.819 10.496C20.241 10.235 20.571 9.85898 20.811 9.36798L22.179 9.84003C21.843 10.603 21.337 11.195 20.659 11.616C19.987 12.032 19.233 12.24 18.395 12.24ZM15.203 8.08002V6.93597H21.587V8.08002H15.203ZM25.632 12L22.992 3.35199L24.408 3.35999L26.336 9.67999L28.28 3.35999H29.536L31.472 9.67999L33.408 3.35999H34.816L32.176 12H30.992L28.904 5.43201L26.816 12H25.632ZM44.288 12C43.776 12.101 43.269 12.141 42.768 12.12C42.272 12.104 41.829 12.005 41.44 11.824C41.05 11.637 40.754 11.349 40.552 10.96C40.381 10.619 40.288 10.275 40.272 9.92798C40.261 9.57598 40.256 9.17902 40.256 8.73602V0.960022H41.68V8.672C41.68 9.024 41.682 9.32499 41.688 9.57599C41.698 9.82699 41.754 10.043 41.856 10.224C42.048 10.565 42.352 10.765 42.768 10.824C43.189 10.883 43.696 10.867 44.288 10.776V12ZM38.504 4.53601V3.35999H44.288V4.53601H38.504ZM46.042 12V3.35999H47.314V5.448L47.106 5.17603C47.207 4.90903 47.338 4.664 47.498 4.44C47.663 4.216 47.847 4.032 48.05 3.888C48.274 3.707 48.527 3.56798 48.81 3.47198C49.093 3.37598 49.381 3.32002 49.674 3.30402C49.967 3.28302 50.24 3.30099 50.5 3.35999V4.69598C50.2 4.61598 49.871 4.59502 49.514 4.63202C49.157 4.66902 48.826 4.79999 48.522 5.02399C48.245 5.22099 48.029 5.46102 47.874 5.74402C47.725 6.02702 47.621 6.333 47.562 6.664C47.503 6.989 47.474 7.323 47.474 7.664V12H46.042ZM55.6 12.24C54.75 12.24 54.01 12.053 53.37 11.68C52.75 11.301 52.25 10.776 51.9 10.104C51.55 9.427 51.37 8.63702 51.37 7.73602C51.37 6.79202 51.55 5.97603 51.89 5.28802C52.24 4.59503 52.72 4.06099 53.34 3.68799C53.97 3.30899 54.7 3.12 55.53 3.12C56.4 3.12 57.14 3.31997 57.75 3.71997C58.36 4.11997 58.82 4.69101 59.13 5.43201C59.44 6.17301 59.57 7.05602 59.53 8.08002H58.09V7.56799C58.07 6.50699 57.85 5.71502 57.44 5.19202C57.02 4.66402 56.4 4.40002 55.58 4.40002C54.7 4.40002 54.03 4.68299 53.57 5.24799C53.12 5.81299 52.89 6.62399 52.89 7.67999C52.89 8.69899 53.12 9.48797 53.57 10.048C54.03 10.608 54.69 10.888 55.53 10.888C56.11 10.888 56.6 10.757 57.02 10.496C57.44 10.235 57.77 9.85898 58.01 9.36798L59.38 9.84003C59.05 10.603 58.54 11.195 57.86 11.616C57.19 12.032 56.44 12.24 55.6 12.24ZM52.41 8.08002V6.93597H58.79V8.08002H52.41ZM67.23 12V7.672C67.23 7.261 67.19 6.86698 67.11 6.48798C67.04 6.10898 66.92 5.77098 66.74 5.47198C66.56 5.16798 66.32 4.92801 66.02 4.75201C65.72 4.57601 65.34 4.48798 64.88 4.48798C64.52 4.48798 64.2 4.549 63.91 4.672C63.62 4.789 63.37 4.971 63.16 5.216C62.95 5.461 62.79 5.77098 62.67 6.14398C62.56 6.51198 62.51 6.947 62.51 7.448L61.57 7.15997C61.57 6.32297 61.72 5.605 62.02 5.008C62.32 4.405 62.75 3.94402 63.29 3.62402C63.84 3.29902 64.48 3.13599 65.23 3.13599C65.79 3.13599 66.26 3.22402 66.66 3.40002C67.05 3.57602 67.38 3.811 67.64 4.104C67.9 4.392 68.11 4.71702 68.26 5.08002C68.41 5.43702 68.51 5.80303 68.57 6.17603C68.63 6.54403 68.67 6.893 68.67 7.224V12H67.23ZM61.07 12V3.35999H62.35V5.672H62.51V12H61.07ZM74.0601 12.24C73.2501 12.24 72.56 12.04 71.99 11.64C71.41 11.235 70.97 10.688 70.65 10C70.34 9.312 70.19 8.536 70.19 7.672C70.19 6.808 70.34 6.03199 70.65 5.34399C70.97 4.65599 71.41 4.11497 71.99 3.71997C72.56 3.31997 73.25 3.12 74.05 3.12C74.87 3.12 75.55 3.31698 76.11 3.71198C76.66 4.10698 77.08 4.648 77.36 5.336C77.65 6.024 77.79 6.803 77.79 7.672C77.79 8.531 77.65 9.307 77.36 10C77.08 10.688 76.66 11.235 76.11 11.64C75.55 12.04 74.8701 12.24 74.0601 12.24ZM74.23 10.936C74.82 10.936 75.29 10.797 75.67 10.52C76.04 10.237 76.31 9.85099 76.49 9.35999C76.67 8.86399 76.76 8.301 76.76 7.672C76.76 7.032 76.67 6.46901 76.49 5.98401C76.31 5.49301 76.04 5.11203 75.67 4.84003C75.31 4.56303 74.84 4.42401 74.27 4.42401C73.69 4.42401 73.2 4.56802 72.82 4.85602C72.44 5.14402 72.16 5.53299 71.97 6.02399C71.79 6.51499 71.7 7.064 71.7 7.672C71.7 8.285 71.79 8.84 71.98 9.336C72.17 9.827 72.45 10.216 72.82 10.504C73.2 10.792 73.67 10.936 74.23 10.936ZM76.76 12V5.64001H76.6V0.47998H78.03V12H76.76ZM84.6 7.54401V6.36798H94.14L91.6801 3.90399L92.41 3.17603L96.1899 6.96002L92.41 10.744L91.6801 10.016L94.15 7.54401H84.6Z" fill="#3B82F6"/>
</svg>
